<?xml version="1.0" encoding="UTF-8" standalone="no"?>
<svg
   xmlns:dc="http://purl.org/dc/elements/1.1/"
   xmlns:cc="http://web.resource.org/cc/"
   xmlns:rdf="http://www.w3.org/1999/02/22-rdf-syntax-ns#"
   xmlns:svg="http://www.w3.org/2000/svg"
   xmlns="http://www.w3.org/2000/svg"
   xmlns:sodipodi="http://sodipodi.sourceforge.net/DTD/sodipodi-0.dtd"
   xmlns:inkscape="http://www.inkscape.org/namespaces/inkscape"
   width="295.88135"
   height="222.53238"
   id="svg1325"
   sodipodi:version="0.32"
   inkscape:version="0.45"
   sodipodi:docname="fontys.svg"
   sodipodi:docbase="/home/hom/testsite/tex"
   version="1.0"
   inkscape:output_extension="org.inkscape.output.svg.inkscape"
   sodipodi:modified="true">
  <metadata
     id="metadata1378">
    <rdf:RDF>
      <cc:Work
         rdf:about="">
        <dc:format>image/svg+xml</dc:format>
        <dc:type
           rdf:resource="http://purl.org/dc/dcmitype/StillImage" />
      </cc:Work>
    </rdf:RDF>
  </metadata>
  <sodipodi:namedview
     inkscape:cy="157.0295"
     inkscape:cx="222.7265"
     inkscape:zoom="1.2800143"
     guidetolerance="10.0"
     gridtolerance="10.0"
     objecttolerance="10.0"
     inkscape:window-height="591"
     inkscape:window-width="827"
     inkscape:pageshadow="2"
     inkscape:pageopacity="0.0"
     borderopacity="1.0"
     bordercolor="#666666"
     pagecolor="#ffffff"
     id="base"
     inkscape:window-x="288"
     inkscape:window-y="55"
     inkscape:current-layer="svg1325"
     borderlayer="false" />
  <defs
     id="defs1327">
    <marker
       id="ArrowEnd"
       viewBox="0 0 10 10"
       refX="0"
       refY="5"
       markerUnits="strokeWidth"
       markerWidth="4"
       markerHeight="3"
       orient="auto">
      <path
         d="M 0,0 L 10,5 L 0,10 L 0,0 z "
         id="path1330" />
    </marker>
    <marker
       id="ArrowStart"
       viewBox="0 0 10 10"
       refX="10"
       refY="5"
       markerUnits="strokeWidth"
       markerWidth="4"
       markerHeight="3"
       orient="auto">
      <path
         d="M 10,0 L 0,5 L 10,10 L 10,0 z "
         id="path1333" />
    </marker>
  </defs>
  <g
     id="g1335"
     transform="matrix(3.262422,0,0,3.262422,-728.71166,-2.8950502e-5)"
     style="fill:#64307b;fill-opacity:1">
    <path
       style="fill:#64307b;fill-opacity:1;fill-rule:evenodd;stroke:none"
       d="M 0,445.453 L 0,445.453 L 0,445.453 z "
       id="path1337" />
    <path
       style="fill:#64307b;fill-opacity:1;fill-rule:evenodd;stroke:none"
       d="M 237.242,62.8079 L 235.422,62.8079 L 235.422,60.5978 L 233.883,60.5978 L 233.883,66.3788 L 235.422,66.3788 L 235.422,63.9019 L 237.242,63.9019 L 237.242,66.3788 L 238.781,66.3788 L 238.781,60.5978 L 237.242,60.5978 L 237.242,62.8079"
       id="path1339" />
    <path
       style="fill:#64307b;fill-opacity:1;fill-rule:evenodd;stroke:none"
       d="M 257.09,63.2538 C 257.09,63.0149 257.453,62.9568 257.777,62.9568 C 258.148,62.9568 258.621,63.0548 258.934,63.2458 L 259.047,62.2148 C 258.566,62.0269 258.047,61.9688 257.531,61.9688 C 256.672,61.9688 255.695,62.3708 255.695,63.3669 C 255.695,64.9258 257.812,64.4099 257.812,65.1368 C 257.812,65.4329 257.516,65.4839 257.211,65.4839 C 256.676,65.4839 256.16,65.3398 255.812,65.1869 L 255.73,66.2689 C 256.168,66.4099 256.625,66.4728 257.293,66.4728 C 258.27,66.4728 259.305,66.1869 259.305,65.0349 C 259.305,63.3939 257.086,63.9298 257.086,63.2578"
       id="path1341" />
    <path
       style="fill:#64307b;fill-opacity:1;fill-rule:evenodd;stroke:none"
       d="M 262.594,65.3828 C 261.949,65.3828 261.371,64.9369 261.371,64.2498 C 261.371,63.5078 261.867,63.0579 262.512,63.0579 C 262.867,63.0579 263.141,63.1328 263.414,63.2968 L 263.52,62.2029 C 263.184,62.0388 262.785,61.9648 262.336,61.9648 C 260.914,61.9648 259.828,62.7928 259.828,64.2259 C 259.828,65.6479 260.91,66.4759 262.336,66.4759 C 262.73,66.4759 263.18,66.4138 263.551,66.2888 L 263.52,65.1798 C 263.273,65.3119 262.934,65.3828 262.594,65.3828"
       id="path1343" />
    <path
       style="fill:#64307b;fill-opacity:1;fill-rule:evenodd;stroke:none"
       d="M 267.125,61.9608 C 266.48,61.9608 266.008,62.2498 265.684,62.6949 L 265.668,62.6949 L 265.668,60.1638 L 264.18,60.1638 L 264.18,66.3748 L 265.668,66.3748 L 265.668,64.5548 C 265.668,63.6288 265.98,63.2068 266.594,63.2068 C 266.996,63.2068 267.281,63.4759 267.281,64.2888 L 267.281,66.3748 L 268.77,66.3748 L 268.77,63.6829 C 268.77,62.7888 268.297,61.9608 267.121,61.9608"
       id="path1345" />
    <path
       style="fill:#64307b;fill-opacity:1;fill-rule:evenodd;stroke:none"
       d="M 275.398,66.3788 L 276.887,66.3788 L 276.887,60.1678 L 275.398,60.1678 L 275.398,66.3788 z "
       id="path1347" />
    <path
       style="fill:#64307b;fill-opacity:1;fill-rule:evenodd;stroke:none"
       d="M 285.996,61.9608 C 285.316,61.9608 284.723,62.2299 284.426,62.8549 L 284.41,62.8549 L 284.41,62.0619 L 283.055,62.0619 L 283.055,66.3788 L 284.543,66.3788 L 284.543,64.5579 C 284.543,63.6328 284.855,63.2108 285.469,63.2108 C 285.871,63.2108 286.156,63.4799 286.156,64.2928 L 286.156,66.3788 L 287.645,66.3788 L 287.645,63.6869 C 287.645,62.7928 287.172,61.9648 286,61.9648"
       id="path1349" />
    <path
       style="fill:#64307b;fill-opacity:1;fill-rule:evenodd;stroke:none"
       d="M 263.5,35.9178 L 263.328,37.5818 L 265.02,37.5818 L 264.121,46.1248 L 262.473,46.1248 L 262.301,47.7888 L 268.852,47.7888 L 269.023,46.1248 L 268,46.1248 L 268.781,38.6758 C 269.629,38.1328 270.395,37.8589 271.023,37.8589 C 271.949,37.8589 272.301,38.4019 272.172,39.6599 L 271.492,46.1288 L 270.566,46.1288 L 270.395,47.7928 L 276.875,47.7928 L 277.047,46.1288 L 275.422,46.1288 L 276.121,39.4409 C 276.375,37.0118 275.273,35.5938 273.168,35.5938 C 271.914,35.5938 270.434,36.1638 268.93,37.2299 L 269.066,35.9218 L 263.5,35.9218"
       id="path1351" />
    <path
       style="fill:#64307b;fill-opacity:1;fill-rule:evenodd;stroke:none"
       d="M 311.242,40.4529 C 309.457,39.2809 309.262,39.0619 309.336,38.3509 C 309.391,37.8079 310.035,37.3708 310.723,37.3708 C 311.758,37.3708 312.477,38.0508 312.684,39.1989 L 313.691,39.1989 L 314.059,35.7068 L 312.859,35.7068 L 312.805,36.2498 C 312.164,35.8708 311.371,35.6519 310.441,35.6519 C 307.988,35.6519 306.047,37.2068 305.828,39.3079 C 305.723,40.3159 306.074,41.3549 306.844,42.0898 C 307.168,42.3629 307.641,42.7968 308.348,43.3708 C 308.598,43.5898 308.848,43.7769 309.047,43.9409 C 309.965,44.5659 310.176,44.8669 310.117,45.4409 C 310.059,46.0118 309.402,46.5309 308.723,46.5309 C 307.469,46.5309 306.531,45.5779 306.328,44.1328 L 305.266,44.1328 L 304.855,48.0619 L 305.879,48.0619 L 306.281,47.3828 C 306.969,47.8159 307.891,48.1129 309.066,48.1129 C 311.711,48.1129 313.746,46.5388 313.961,44.4608 C 314.121,42.9329 313.461,41.9489 311.246,40.4489"
       id="path1353" />
    <path
       style="fill:#64307b;fill-opacity:1;fill-rule:evenodd;stroke:none"
       d="M 286.281,32.2649 L 282.207,34.2578 L 282.016,35.8828 L 280.121,35.8828 L 279.941,37.5189 L 279.867,37.5739 L 281.785,37.5739 L 281.141,43.9759 C 280.898,46.4258 282.137,47.9529 284.559,47.9529 C 286.191,47.9529 286.949,47.7498 288.121,47.1089 C 288.203,47.0619 288.273,47.0078 288.332,46.9409 L 288.051,45.5468 C 286.809,46.2968 286.285,46.1678 285.566,45.7148 L 285.57,45.7148 C 285.129,45.4059 285.055,44.6328 285.18,43.4019 L 285.766,37.5858 L 288.938,37.5858 L 289.105,35.9298 L 285.934,35.9298 L 286.281,32.2769"
       id="path1355" />
    <path
       style="fill:#64307b;fill-opacity:1;fill-rule:evenodd;stroke:none"
       d="M 299.715,37.5818 L 301.047,37.5818 L 297.828,43.3908 L 296.316,37.5818 L 297.668,37.5818 L 297.84,35.9178 L 291.141,35.9178 L 290.969,37.5818 L 292.551,37.5818 L 295.152,47.3509 L 290.992,54.4799 L 294.402,54.4799 L 302.652,37.5818 L 304.039,37.5818 L 304.211,35.9178 L 299.887,35.9178 L 299.715,37.5818"
       id="path1357" />
    <path
       style="fill:#64307b;fill-opacity:1;fill-rule:evenodd;stroke:none"
       d="M 237.5,22.7578 C 237.5,22.7578 244.828,20.6368 250.777,20.7888 C 257.035,20.9449 262.945,23.0269 264.141,23.3788 C 264.969,23.6208 265.914,23.4919 266.141,22.6949 C 266.25,22.3008 266.312,21.3788 264.77,20.0189 C 260.336,16.1288 255.039,14.7689 255.039,14.7689 C 247.012,6.40585 240.023,5.28085 240.023,5.28085 C 242.375,7.79285 243.516,14.4648 242.684,14.7458 C 229.41,18.8119 225.605,26.8748 225.605,26.8748 C 226.578,26.0659 230.715,22.2419 240.055,20.6599 C 238.73,21.7339 237.5,22.7649 237.5,22.7649"
       id="path1359" />
    <path
       style="fill:#64307b;fill-opacity:1;fill-rule:evenodd;stroke:none"
       d="M 247.098,6.68686 C 251.309,8.79285 254.98,13.9688 254.98,13.9688 C 253.934,8.87085 246.84,-0.719147 246.949,0.0428467 C 247.445,3.47284 247.098,6.68686 247.098,6.68686"
       id="path1361" />
    <path
       style="fill:#64307b;fill-opacity:1;fill-rule:evenodd;stroke:none"
       d="M 235.086,31.4489 L 234.91,33.2228 L 236.602,33.2228 L 236.016,39.0938 L 236.039,39.1408 L 235.984,39.1169 C 233.844,38.9369 231.883,38.5078 230.086,37.8358 C 227.934,36.9958 225.559,35.5659 224.949,33.4759 C 224.184,30.5508 226.137,28.2928 227.523,27.2108 L 227.484,29.7379 C 228.227,27.3239 230.086,25.1089 230.086,25.1089 C 225.469,27.6519 224.055,30.1288 223.527,31.9138 C 223.312,32.7148 223.348,33.3549 223.426,34.0548 C 223.719,35.6718 224.695,36.8279 225.863,37.7928 C 228.527,39.9178 231.93,40.9958 235.738,41.4998 L 235.797,41.4839 L 235.773,41.5309 L 235.324,46.0349 L 233.691,46.0349 L 233.516,47.8079 L 240.949,47.8079 L 241.125,46.0349 L 239.453,46.0349 L 239.875,41.7649 L 239.848,41.7068 L 239.914,41.7339 C 241.387,41.7498 243.57,41.7068 243.57,41.7068 L 243.922,37.8199 L 242.926,37.8199 L 242.457,39.1678 C 241.586,39.2498 240.41,39.2339 240.168,39.2299 L 240.098,39.2618 L 240.141,39.1909 L 240.184,38.7148 L 240.73,33.2228 L 245.02,33.2228 L 244.805,35.3788 L 246.633,35.3788 L 247.027,31.4449 L 235.09,31.4449"
       id="path1363" />
    <path
       style="fill:#64307b;fill-opacity:1;fill-rule:evenodd;stroke:none"
       d="M 254.477,35.5898 C 258.434,35.5898 260.945,38.1829 260.562,41.8398 C 260.387,43.5309 259.602,45.0038 258.254,46.1798 C 256.812,47.4329 255.254,47.9799 253.125,47.9799 C 249.195,47.9799 246.605,45.3629 246.977,41.8119 C 247.355,38.1829 250.469,35.5898 254.48,35.5898 L 254.477,35.5898 z M 251.328,41.8939 C 251,45.0309 251.652,46.5898 253.234,46.5898 C 254.898,46.5898 255.879,45.0619 256.211,41.8939 C 256.535,38.7849 255.863,37.1718 254.281,37.1718 C 252.59,37.1718 251.672,38.6439 251.328,41.8939"
       id="path1365" />
    <path
       style="fill:#64307b;fill-opacity:1;fill-rule:evenodd;stroke:none"
       d="M 248.531,62.0619 L 248.531,62.8398 L 248.516,62.8398 C 248.203,62.3119 247.688,61.9648 247.051,61.9648 C 245.711,61.9648 245.105,62.9258 245.105,64.2068 C 245.105,65.4799 245.84,66.3748 247.027,66.3748 C 247.621,66.3748 248.121,66.1439 248.477,65.6408 L 248.492,65.6408 L 248.492,65.8708 C 248.492,66.7148 248.031,67.1208 247.168,67.1208 C 246.547,67.1208 246.168,66.9879 245.711,66.7649 L 245.637,67.9409 C 245.984,68.0659 246.57,68.2108 247.285,68.2108 C 249.023,68.2108 249.887,67.6408 249.887,65.8669 L 249.887,62.0579 L 248.539,62.0579 L 248.531,62.0619 z M 247.488,65.2339 C 247.043,65.2339 246.645,64.8549 246.645,64.1829 C 246.645,63.5978 246.934,63.1089 247.488,63.1089 C 248.156,63.1089 248.438,63.6439 248.438,64.1248 C 248.438,64.7849 248.016,65.2339 247.488,65.2339"
       id="path1367" />
    <path
       style="fill:#64307b;fill-opacity:1;fill-rule:evenodd;stroke:none"
       d="M 255.121,64.3828 C 255.121,63.1009 254.543,61.9648 252.945,61.9648 C 251.605,61.9648 250.637,62.7928 250.637,64.2148 C 250.637,65.6408 251.719,66.4759 253.145,66.4759 C 253.699,66.4759 254.246,66.3979 254.727,66.2029 L 254.727,65.1519 C 254.281,65.3908 253.816,65.4799 253.41,65.4799 C 252.684,65.4799 252.227,65.2498 252.145,64.6559 L 255.125,64.6559 L 255.125,64.3868 L 255.121,64.3828 z M 252.121,63.8079 C 252.152,63.3159 252.41,62.9099 252.949,62.9099 C 253.543,62.9099 253.773,63.3119 253.773,63.8079 L 252.117,63.8079"
       id="path1369" />
    <path
       style="fill:#64307b;fill-opacity:1;fill-rule:evenodd;stroke:none"
       d="M 272,61.9608 C 270.578,61.9608 269.492,62.7888 269.492,64.2228 C 269.492,65.6439 270.574,66.4728 272,66.4728 C 273.422,66.4728 274.508,65.6479 274.508,64.2228 C 274.508,62.7928 273.426,61.9608 272,61.9608 z M 272,65.4329 C 271.312,65.4329 271.031,64.8629 271.031,64.2259 C 271.031,63.5818 271.312,63.0118 272,63.0118 C 272.688,63.0118 272.969,63.5818 272.969,64.2259 C 272.969,64.8629 272.691,65.4329 272,65.4329"
       id="path1371" />
    <path
       style="fill:#64307b;fill-opacity:1;fill-rule:evenodd;stroke:none"
       d="M 282.273,64.3828 C 282.273,63.1009 281.695,61.9648 280.098,61.9648 C 278.758,61.9648 277.789,62.7928 277.789,64.2148 C 277.789,65.6408 278.871,66.4759 280.297,66.4759 C 280.852,66.4759 281.398,66.3979 281.875,66.2029 L 281.875,65.1519 C 281.43,65.3908 280.965,65.4799 280.559,65.4799 C 279.832,65.4799 279.375,65.2498 279.293,64.6559 L 282.273,64.6559 L 282.273,64.3868 L 282.273,64.3828 z M 279.273,63.8079 C 279.305,63.3159 279.562,62.9099 280.102,62.9099 C 280.695,62.9099 280.926,63.3119 280.926,63.8079 L 279.27,63.8079"
       id="path1373" />
    <path
       style="fill:#64307b;fill-opacity:1;fill-rule:evenodd;stroke:none"
       d="M 242.082,61.9608 C 240.66,61.9608 239.574,62.7888 239.574,64.2228 C 239.574,65.6439 240.656,66.4728 242.082,66.4728 C 243.504,66.4728 244.59,65.6479 244.59,64.2228 C 244.59,62.7928 243.508,61.9608 242.082,61.9608 z M 242.082,65.4329 C 241.398,65.4329 241.113,64.8629 241.113,64.2259 C 241.113,63.5818 241.395,63.0118 242.082,63.0118 C 242.77,63.0118 243.051,63.5818 243.051,64.2259 C 243.051,64.8629 242.773,65.4329 242.082,65.4329"
       id="path1375" />
  </g>
</svg>
